<svg width="243" height="60" viewBox="0 0 243 60" fill="none" xmlns="http://www.w3.org/2000/svg">
<path d="M15.264 48.48C12.128 48.48 9.44 47.92 7.2 46.8C4.992 45.648 3.088 43.984 1.488 41.808L6 36.72C7.568 38.896 9.12 40.384 10.656 41.184C12.224 41.952 13.904 42.336 15.696 42.336C16.688 42.336 17.568 42.192 18.336 41.904C19.136 41.616 19.76 41.216 20.208 40.704C20.688 40.192 20.928 39.6 20.928 38.928C20.928 38.416 20.816 37.952 20.592 37.536C20.368 37.088 20.048 36.704 19.632 36.384C19.216 36.032 18.72 35.728 18.144 35.472C17.568 35.184 16.928 34.944 16.224 34.752C15.52 34.56 14.752 34.384 13.92 34.224C12.128 33.84 10.56 33.344 9.216 32.736C7.872 32.128 6.752 31.392 5.856 30.528C4.96 29.664 4.288 28.672 3.84 27.552C3.424 26.4 3.216 25.12 3.216 23.712C3.216 21.728 3.776 20 4.896 18.528C6.016 17.024 7.504 15.856 9.36 15.024C11.216 14.16 13.264 13.728 15.504 13.728C18.544 13.728 21.04 14.24 22.992 15.264C24.976 16.288 26.56 17.728 27.744 19.584L23.136 24.096C22.144 22.72 21.008 21.68 19.728 20.976C18.448 20.272 17.072 19.92 15.6 19.92C14.576 19.92 13.664 20.064 12.864 20.352C12.096 20.608 11.504 21.008 11.088 21.552C10.672 22.064 10.464 22.672 10.464 23.376C10.464 23.952 10.608 24.464 10.896 24.912C11.184 25.36 11.584 25.76 12.096 26.112C12.64 26.432 13.296 26.72 14.064 26.976C14.832 27.232 15.68 27.44 16.608 27.6C18.368 27.952 19.952 28.432 21.36 29.04C22.768 29.616 23.968 30.32 24.96 31.152C25.984 31.984 26.768 32.944 27.312 34.032C27.856 35.12 28.128 36.336 28.128 37.68C28.128 39.952 27.584 41.888 26.496 43.488C25.408 45.088 23.904 46.32 21.984 47.184C20.064 48.048 17.824 48.48 15.264 48.48ZM45.5213 48.48C42.9613 48.48 40.6573 47.92 38.6093 46.8C36.5933 45.648 34.9933 44.08 33.8093 42.096C32.6573 40.112 32.0813 37.856 32.0813 35.328C32.0813 32.736 32.6573 30.448 33.8093 28.464C34.9933 26.48 36.5933 24.928 38.6093 23.808C40.6573 22.656 42.9613 22.08 45.5213 22.08C48.1133 22.08 50.4173 22.656 52.4333 23.808C54.4493 24.928 56.0333 26.48 57.1853 28.464C58.3693 30.448 58.9613 32.736 58.9613 35.328C58.9613 37.856 58.3693 40.112 57.1853 42.096C56.0333 44.08 54.4493 45.648 52.4333 46.8C50.4173 47.92 48.1133 48.48 45.5213 48.48ZM45.5213 42.576C46.8013 42.576 47.9213 42.256 48.8813 41.616C49.8733 40.976 50.6413 40.112 51.1853 39.024C51.7613 37.936 52.0333 36.704 52.0013 35.328C52.0333 33.888 51.7613 32.624 51.1853 31.536C50.6413 30.416 49.8733 29.552 48.8813 28.944C47.9213 28.304 46.8013 27.984 45.5213 27.984C44.2733 27.984 43.1533 28.304 42.1613 28.944C41.1693 29.584 40.3853 30.448 39.8093 31.536C39.2333 32.624 38.9613 33.888 38.9933 35.328C38.9613 36.704 39.2333 37.936 39.8093 39.024C40.3853 40.112 41.1693 40.976 42.1613 41.616C43.1533 42.256 44.2733 42.576 45.5213 42.576ZM64.2094 48V12.48H71.0254V48H64.2094ZM91.563 48V32.112C91.563 30.768 91.147 29.744 90.315 29.04C89.515 28.304 88.427 27.936 87.051 27.936C85.739 27.936 84.571 28.192 83.547 28.704C82.523 29.216 81.563 30.016 80.667 31.104L76.491 27.072C78.027 25.472 79.739 24.24 81.627 23.376C83.547 22.512 85.627 22.08 87.867 22.08C89.915 22.08 91.691 22.4 93.195 23.04C94.731 23.68 95.915 24.64 96.747 25.92C97.579 27.2 97.995 28.816 97.995 30.768V48H91.563ZM84.603 48.48C83.003 48.48 81.547 48.16 80.235 47.52C78.955 46.88 77.931 46 77.163 44.88C76.427 43.728 76.059 42.384 76.059 40.848C76.059 39.536 76.299 38.384 76.779 37.392C77.259 36.368 77.963 35.536 78.891 34.896C79.851 34.224 81.035 33.712 82.443 33.36C83.883 33.008 85.547 32.832 87.435 32.832H94.923L94.491 37.392H87.339C86.571 37.392 85.883 37.456 85.275 37.584C84.699 37.712 84.203 37.92 83.787 38.208C83.403 38.496 83.099 38.832 82.875 39.216C82.683 39.6 82.587 40.048 82.587 40.56C82.587 41.104 82.731 41.584 83.019 42C83.307 42.416 83.691 42.736 84.171 42.96C84.683 43.184 85.259 43.296 85.899 43.296C86.827 43.296 87.707 43.136 88.539 42.816C89.403 42.496 90.171 42.048 90.843 41.472C91.515 40.896 92.043 40.24 92.427 39.504L93.723 42.912C93.051 44 92.235 44.96 91.275 45.792C90.315 46.624 89.275 47.28 88.155 47.76C87.035 48.24 85.851 48.48 84.603 48.48ZM104.196 48V22.608H110.772L111.012 30.768L109.86 29.04C110.276 27.76 110.9 26.592 111.732 25.536C112.596 24.48 113.604 23.648 114.756 23.04C115.94 22.4 117.172 22.08 118.452 22.08C119.028 22.08 119.556 22.128 120.036 22.224C120.548 22.288 120.98 22.4 121.332 22.56L119.508 30C119.156 29.84 118.692 29.696 118.116 29.568C117.572 29.408 117.012 29.328 116.436 29.328C115.7 29.328 114.996 29.472 114.324 29.76C113.684 30.016 113.108 30.4 112.596 30.912C112.116 31.392 111.732 31.968 111.444 32.64C111.188 33.312 111.06 34.064 111.06 34.896V48H104.196ZM126.275 48V14.4H140.531C142.547 14.4 144.355 14.88 145.955 15.84C147.555 16.768 148.819 18.048 149.747 19.68C150.707 21.28 151.187 23.104 151.187 25.152C151.187 27.232 150.707 29.12 149.747 30.816C148.819 32.48 147.555 33.808 145.955 34.8C144.355 35.76 142.547 36.24 140.531 36.24H133.475V48H126.275ZM133.379 29.712H139.763C140.499 29.712 141.171 29.52 141.779 29.136C142.387 28.752 142.883 28.224 143.267 27.552C143.651 26.88 143.843 26.112 143.843 25.248C143.843 24.384 143.651 23.632 143.267 22.992C142.883 22.352 142.387 21.84 141.779 21.456C141.171 21.072 140.499 20.88 139.763 20.88H133.379V29.712ZM165.248 48.48C163.424 48.48 161.84 48.08 160.496 47.28C159.152 46.448 158.112 45.28 157.376 43.776C156.672 42.24 156.32 40.416 156.32 38.304V22.608H163.136V37.056C163.136 38.848 163.552 40.256 164.384 41.28C165.248 42.272 166.432 42.768 167.936 42.768C168.704 42.768 169.392 42.656 170 42.432C170.64 42.176 171.184 41.824 171.632 41.376C172.08 40.928 172.432 40.4 172.688 39.792C172.944 39.184 173.072 38.512 173.072 37.776V22.608H179.888V48H173.408L173.216 42.768L174.416 42.192C174.064 43.376 173.424 44.448 172.496 45.408C171.6 46.368 170.528 47.12 169.28 47.664C168.032 48.208 166.688 48.48 165.248 48.48ZM186.818 48V22.608H193.394L193.586 27.792L192.242 28.368C192.562 27.216 193.186 26.176 194.114 25.248C195.042 24.288 196.146 23.52 197.426 22.944C198.706 22.368 200.034 22.08 201.41 22.08C203.33 22.08 204.93 22.464 206.21 23.232C207.522 24 208.498 25.168 209.138 26.736C209.81 28.272 210.146 30.192 210.146 32.496V48H203.33V32.976C203.33 31.824 203.17 30.864 202.85 30.096C202.53 29.328 202.05 28.768 201.41 28.416C200.77 28.064 199.954 27.904 198.962 27.936C198.194 27.936 197.49 28.064 196.85 28.32C196.21 28.544 195.634 28.88 195.122 29.328C194.642 29.776 194.274 30.288 194.018 30.864C193.762 31.44 193.634 32.08 193.634 32.784V48H190.226C189.522 48 188.882 48 188.306 48C187.73 48 187.234 48 186.818 48ZM223.182 40.368L221.31 34.704L233.214 22.608H242.19L223.182 40.368ZM216.75 48V12.48H223.566V48H216.75ZM233.934 48L224.814 36.624L229.662 32.736L242.142 48H233.934Z" fill="#ffffff"/>
<circle cx="45.5" cy="35.5" r="14.5" fill="#FF9900"/>
<circle cx="54.5" cy="17.5" r="1.5" fill="#FF9900"/>
<circle cx="44.5" cy="9.5" r="1.5" fill="#FF9900"/>
<circle cx="57.5" cy="9.5" r="3.5" fill="#FF9900"/>
<circle cx="33.5" cy="17.5" r="3.5" fill="#FF9900"/>
<ellipse cx="56.0283" cy="49.9122" rx="1.83584" ry="1.7025" transform="rotate(-6.9486 56.0283 49.9122)" fill="#FF9900"/>
<circle cx="32.5" cy="54.5" r="3.5" fill="#FF9900"/>
</svg>
