<svg width="188" height="248" viewBox="0 0 188 248" fill="none" xmlns="http://www.w3.org/2000/svg">
<g id="Group 192">
<path id="STR" d="M85.4799 9.99023C85.4799 9.71215 85.4363 9.46679 85.349 9.25414C85.2672 9.03604 85.12 8.83975 84.9074 8.66528C84.7002 8.4908 84.4112 8.3245 84.0404 8.16637C83.6751 8.00825 83.2116 7.8474 82.65 7.68383C82.0612 7.50935 81.5295 7.31579 81.0552 7.10314C80.5808 6.88504 80.1746 6.63695 79.8366 6.35887C79.4985 6.0808 79.2395 5.76183 79.0596 5.40196C78.8796 5.0421 78.7897 4.63044 78.7897 4.16698C78.7897 3.70351 78.8851 3.27549 79.0759 2.88292C79.2668 2.49034 79.5394 2.14956 79.8938 1.86058C80.2537 1.56614 80.6817 1.33714 81.1779 1.17356C81.674 1.00999 82.2275 0.928201 82.8381 0.928201C83.7324 0.928201 84.4902 1.09995 85.1118 1.44346C85.7389 1.78151 86.216 2.22589 86.5431 2.77659C86.8703 3.32184 87.0338 3.90526 87.0338 4.52684H85.4635C85.4635 4.07974 85.3681 3.68443 85.1773 3.34092C84.9864 2.99197 84.6974 2.71934 84.3103 2.52305C83.9232 2.32131 83.4325 2.22044 82.8381 2.22044C82.2765 2.22044 81.8131 2.30495 81.4478 2.47398C81.0824 2.64301 80.8098 2.87201 80.6299 3.16099C80.4554 3.44997 80.3682 3.77985 80.3682 4.15062C80.3682 4.40143 80.42 4.63044 80.5236 4.83763C80.6326 5.03937 80.7989 5.22748 81.0225 5.40196C81.2515 5.57644 81.5405 5.73729 81.8894 5.88451C82.2438 6.03173 82.6664 6.17349 83.1571 6.3098C83.8332 6.50064 84.4166 6.71329 84.9074 6.94774C85.3981 7.1822 85.8016 7.44665 86.1178 7.74108C86.4395 8.03006 86.6767 8.35994 86.8294 8.73071C86.9875 9.09602 87.0665 9.51041 87.0665 9.97387C87.0665 10.4591 86.9684 10.8981 86.7721 11.2906C86.5758 11.6832 86.295 12.0186 85.9297 12.2966C85.5644 12.5747 85.1255 12.7901 84.6129 12.9427C84.1058 13.09 83.5388 13.1636 82.9118 13.1636C82.3611 13.1636 81.8185 13.0872 81.2842 12.9346C80.7553 12.7819 80.2728 12.5529 79.8366 12.2476C79.4058 11.9422 79.0596 11.566 78.7979 11.1189C78.5416 10.6663 78.4135 10.1429 78.4135 9.54858H79.9838C79.9838 9.95751 80.0628 10.3092 80.221 10.6036C80.3791 10.8926 80.5944 11.1325 80.8671 11.3234C81.1451 11.5142 81.4587 11.656 81.8076 11.7487C82.162 11.8359 82.5301 11.8795 82.9118 11.8795C83.4625 11.8795 83.9286 11.8032 84.3103 11.6505C84.692 11.4978 84.981 11.2797 85.1773 10.9962C85.379 10.7127 85.4799 10.3774 85.4799 9.99023ZM93.4787 1.09178V13H91.9247V1.09178H93.4787ZM97.3063 1.09178V2.38401H88.1052V1.09178H97.3063ZM99.0729 1.09178H103.015C103.909 1.09178 104.664 1.22809 105.281 1.50071C105.902 1.77334 106.374 2.17682 106.695 2.71116C107.023 3.24005 107.186 3.89163 107.186 4.66588C107.186 5.21113 107.074 5.71003 106.851 6.16259C106.633 6.60969 106.317 6.99136 105.902 7.30761C105.493 7.6184 105.002 7.85013 104.43 8.0028L103.988 8.17455H100.283L100.267 6.89049H103.064C103.631 6.89049 104.103 6.79235 104.479 6.59606C104.855 6.39432 105.139 6.12442 105.33 5.78636C105.52 5.44831 105.616 5.07481 105.616 4.66588C105.616 4.20787 105.526 3.80711 105.346 3.46361C105.166 3.1201 104.883 2.85565 104.495 2.67027C104.114 2.47943 103.62 2.38401 103.015 2.38401H100.651V13H99.0729V1.09178ZM106.033 13L103.138 7.60204L104.782 7.59386L107.718 12.9019V13H106.033Z" fill="white"/>
<path id="DEX" d="M155.168 49H152.682L152.698 47.7159H155.168C156.019 47.7159 156.728 47.5387 157.295 47.1843C157.862 46.8245 158.287 46.3228 158.57 45.6794C158.859 45.0306 159.004 44.2727 159.004 43.4058V42.6778C159.004 41.9963 158.922 41.3911 158.759 40.8622C158.595 40.3278 158.355 39.878 158.039 39.5127C157.723 39.1419 157.335 38.8611 156.877 38.6703C156.425 38.4794 155.904 38.384 155.315 38.384H152.633V37.0918H155.315C156.095 37.0918 156.807 37.2226 157.45 37.4844C158.093 37.7406 158.647 38.1141 159.11 38.6048C159.579 39.0901 159.939 39.679 160.19 40.3714C160.441 41.0585 160.566 41.8327 160.566 42.6942V43.4058C160.566 44.2672 160.441 45.0442 160.19 45.7367C159.939 46.4237 159.576 47.0098 159.102 47.4951C158.633 47.9804 158.066 48.3539 157.401 48.6156C156.741 48.8719 155.997 49 155.168 49ZM153.524 37.0918V49H151.946V37.0918H153.524ZM170.503 47.7159V49H164.197V47.7159H170.503ZM164.516 37.0918V49H162.938V37.0918H164.516ZM169.669 42.2117V43.4957H164.197V42.2117H169.669ZM170.421 37.0918V38.384H164.197V37.0918H170.421ZM173.48 37.0918L176.343 41.6555L179.205 37.0918H181.046L177.283 42.9886L181.136 49H179.279L176.343 44.3463L173.407 49H171.55L175.402 42.9886L171.64 37.0918H173.48Z" fill="white"/>
<path id="CHA" d="M17.9463 46.2132H19.5166C19.4348 46.9657 19.2195 47.6391 18.8705 48.2334C18.5215 48.8277 18.0281 49.2994 17.3902 49.6483C16.7522 49.9918 15.9561 50.1636 15.002 50.1636C14.304 50.1636 13.6688 50.0327 13.0963 49.771C12.5293 49.5093 12.0413 49.1385 11.6323 48.6587C11.2234 48.1734 10.9071 47.5927 10.6836 46.9166C10.4655 46.2351 10.3564 45.4772 10.3564 44.6429V43.457C10.3564 42.6228 10.4655 41.8676 10.6836 41.1915C10.9071 40.51 11.2261 39.9265 11.6405 39.4413C12.0603 38.956 12.5647 38.5825 13.1536 38.3208C13.7424 38.0591 14.4049 37.9282 15.141 37.9282C16.0407 37.9282 16.8013 38.0972 17.4229 38.4353C18.0444 38.7733 18.527 39.2422 18.8705 39.842C19.2195 40.4363 19.4348 41.1261 19.5166 41.9112H17.9463C17.87 41.3551 17.7282 40.878 17.521 40.48C17.3138 40.0765 17.0194 39.7657 16.6377 39.5476C16.256 39.3295 15.7571 39.2204 15.141 39.2204C14.6121 39.2204 14.1459 39.3213 13.7424 39.5231C13.3444 39.7248 13.0091 40.011 12.7365 40.3818C12.4693 40.7526 12.2675 41.197 12.1312 41.715C11.9949 42.2329 11.9268 42.8082 11.9268 43.4407V44.6429C11.9268 45.2264 11.9867 45.7743 12.1067 46.2869C12.2321 46.7994 12.4202 47.2492 12.671 47.6363C12.9218 48.0235 13.2408 48.3288 13.6279 48.5524C14.0151 48.7705 14.4731 48.8795 15.002 48.8795C15.6726 48.8795 16.207 48.7732 16.605 48.5605C17.003 48.3479 17.3029 48.0426 17.5047 47.6445C17.7118 47.2465 17.8591 46.7694 17.9463 46.2132ZM29.4456 43.2117V44.4957H23.0008V43.2117H29.4456ZM23.2461 38.0918V50H21.6676V38.0918H23.2461ZM30.8196 38.0918V50H29.2493V38.0918H30.8196ZM38.1805 39.1468L34.2383 50H32.6271L37.1663 38.0918H38.205L38.1805 39.1468ZM41.4847 50L37.5344 39.1468L37.5098 38.0918H38.5485L43.1041 50H41.4847ZM41.2802 45.5917V46.8839H34.59V45.5917H41.2802Z" fill="white"/>
<path id="CON" d="M159.571 216.213H161.142C161.06 216.966 160.844 217.639 160.496 218.233C160.147 218.828 159.653 219.299 159.015 219.648C158.377 219.992 157.581 220.164 156.627 220.164C155.929 220.164 155.294 220.033 154.721 219.771C154.154 219.509 153.666 219.139 153.257 218.659C152.848 218.173 152.532 217.593 152.309 216.917C152.09 216.235 151.981 215.477 151.981 214.643V213.457C151.981 212.623 152.09 211.868 152.309 211.192C152.532 210.51 152.851 209.927 153.266 209.441C153.685 208.956 154.19 208.582 154.779 208.321C155.367 208.059 156.03 207.928 156.766 207.928C157.666 207.928 158.426 208.097 159.048 208.435C159.669 208.773 160.152 209.242 160.496 209.842C160.844 210.436 161.06 211.126 161.142 211.911H159.571C159.495 211.355 159.353 210.878 159.146 210.48C158.939 210.076 158.644 209.766 158.263 209.548C157.881 209.329 157.382 209.22 156.766 209.22C156.237 209.22 155.771 209.321 155.367 209.523C154.969 209.725 154.634 210.011 154.361 210.382C154.094 210.753 153.893 211.197 153.756 211.715C153.62 212.233 153.552 212.808 153.552 213.441V214.643C153.552 215.226 153.612 215.774 153.732 216.287C153.857 216.799 154.045 217.249 154.296 217.636C154.547 218.023 154.866 218.329 155.253 218.552C155.64 218.77 156.098 218.88 156.627 218.88C157.298 218.88 157.832 218.773 158.23 218.561C158.628 218.348 158.928 218.043 159.13 217.645C159.337 217.246 159.484 216.769 159.571 216.213ZM172.461 213.67V214.422C172.461 215.316 172.349 216.118 172.126 216.827C171.902 217.535 171.58 218.138 171.161 218.634C170.741 219.13 170.236 219.509 169.647 219.771C169.064 220.033 168.41 220.164 167.685 220.164C166.981 220.164 166.335 220.033 165.746 219.771C165.163 219.509 164.656 219.13 164.225 218.634C163.8 218.138 163.47 217.535 163.235 216.827C163.001 216.118 162.884 215.316 162.884 214.422V213.67C162.884 212.775 162.998 211.977 163.227 211.273C163.462 210.564 163.792 209.962 164.217 209.466C164.642 208.964 165.146 208.582 165.73 208.321C166.319 208.059 166.965 207.928 167.668 207.928C168.393 207.928 169.048 208.059 169.631 208.321C170.22 208.582 170.724 208.964 171.144 209.466C171.569 209.962 171.894 210.564 172.117 211.273C172.346 211.977 172.461 212.775 172.461 213.67ZM170.899 214.422V213.653C170.899 212.944 170.825 212.317 170.678 211.772C170.536 211.227 170.326 210.769 170.048 210.398C169.77 210.027 169.429 209.747 169.026 209.556C168.628 209.365 168.175 209.27 167.668 209.27C167.178 209.27 166.733 209.365 166.335 209.556C165.943 209.747 165.604 210.027 165.321 210.398C165.043 210.769 164.827 211.227 164.675 211.772C164.522 212.317 164.446 212.944 164.446 213.653V214.422C164.446 215.136 164.522 215.769 164.675 216.32C164.827 216.865 165.046 217.326 165.329 217.702C165.618 218.073 165.959 218.353 166.351 218.544C166.749 218.735 167.194 218.83 167.685 218.83C168.197 218.83 168.652 218.735 169.05 218.544C169.448 218.353 169.784 218.073 170.056 217.702C170.335 217.326 170.544 216.865 170.686 216.32C170.828 215.769 170.899 215.136 170.899 214.422ZM183.985 208.092V220H182.398L176.403 210.815V220H174.825V208.092H176.403L182.423 217.301V208.092H183.985Z" fill="white"/>
<path id="INT" d="M81.0752 235.092V247H79.4967V235.092H81.0752ZM93.1061 235.092V247H91.5194L85.5244 237.815V247H83.9459V235.092H85.5244L91.544 244.301V235.092H93.1061ZM100.058 235.092V247H98.5041V235.092H100.058ZM103.886 235.092V236.384H94.6846V235.092H103.886Z" fill="white"/>
<path id="WIS" d="M14.5147 212.401L16.8783 204.092H18.0233L17.3609 207.322L14.8173 216H13.6804L14.5147 212.401ZM12.0692 204.092L13.9503 212.238L14.5147 216H13.386L10.4989 204.092H12.0692ZM21.0822 212.23L22.9224 204.092H24.5009L21.622 216H20.4933L21.0822 212.23ZM18.1951 204.092L20.4933 212.401L21.3275 216H20.1907L17.7371 207.322L17.0664 204.092H18.1951ZM27.9441 204.092V216H26.3656V204.092H27.9441ZM37.1615 212.99C37.1615 212.712 37.1179 212.467 37.0307 212.254C36.9489 212.036 36.8017 211.84 36.589 211.665C36.3818 211.491 36.0929 211.324 35.7221 211.166C35.3568 211.008 34.8933 210.847 34.3317 210.684C33.7428 210.509 33.2112 210.316 32.7369 210.103C32.2625 209.885 31.8563 209.637 31.5182 209.359C31.1802 209.081 30.9212 208.762 30.7412 208.402C30.5613 208.042 30.4713 207.63 30.4713 207.167C30.4713 206.704 30.5668 206.275 30.7576 205.883C30.9484 205.49 31.2211 205.15 31.5755 204.861C31.9353 204.566 32.3634 204.337 32.8595 204.174C33.3557 204.01 33.9091 203.928 34.5198 203.928C35.414 203.928 36.1719 204.1 36.7935 204.443C37.4205 204.782 37.8976 205.226 38.2248 205.777C38.5519 206.322 38.7155 206.905 38.7155 207.527H37.1452C37.1452 207.08 37.0498 206.684 36.8589 206.341C36.6681 205.992 36.3791 205.719 35.992 205.523C35.6049 205.321 35.1141 205.22 34.5198 205.22C33.9582 205.22 33.4948 205.305 33.1294 205.474C32.7641 205.643 32.4915 205.872 32.3116 206.161C32.1371 206.45 32.0498 206.78 32.0498 207.151C32.0498 207.401 32.1016 207.63 32.2052 207.838C32.3143 208.039 32.4806 208.227 32.7041 208.402C32.9331 208.576 33.2221 208.737 33.5711 208.885C33.9255 209.032 34.3481 209.173 34.8388 209.31C35.5149 209.501 36.0983 209.713 36.589 209.948C37.0798 210.182 37.4832 210.447 37.7995 210.741C38.1212 211.03 38.3584 211.36 38.511 211.731C38.6692 212.096 38.7482 212.51 38.7482 212.974C38.7482 213.459 38.6501 213.898 38.4538 214.291C38.2575 214.683 37.9767 215.019 37.6114 215.297C37.2461 215.575 36.8071 215.79 36.2946 215.943C35.7875 216.09 35.2205 216.164 34.5934 216.164C34.0427 216.164 33.5002 216.087 32.9659 215.935C32.437 215.782 31.9544 215.553 31.5182 215.248C31.0875 214.942 30.7412 214.566 30.4795 214.119C30.2233 213.666 30.0951 213.143 30.0951 212.549H31.6654C31.6654 212.958 31.7445 213.309 31.9026 213.604C32.0607 213.893 32.2761 214.133 32.5487 214.323C32.8268 214.514 33.1403 214.656 33.4893 214.749C33.8437 214.836 34.2118 214.88 34.5934 214.88C35.1441 214.88 35.6103 214.803 35.992 214.651C36.3737 214.498 36.6626 214.28 36.8589 213.996C37.0607 213.713 37.1615 213.377 37.1615 212.99Z" fill="white"/>
<path id="ATRIBUTOS" d="M69.4997 117.388L67.1344 123.9H66.1677L68.8912 116.755H69.5144L69.4997 117.388ZM71.4822 123.9L69.112 117.388L69.0973 116.755H69.7205L72.4539 123.9H71.4822ZM71.3596 121.255V122.031H67.3454V121.255H71.3596ZM75.4129 116.755V123.9H74.4806V116.755H75.4129ZM77.7095 116.755V117.531H72.1889V116.755H77.7095ZM78.7695 116.755H81.1348C81.6713 116.755 82.1244 116.837 82.4941 117.001C82.867 117.164 83.15 117.406 83.343 117.727C83.5393 118.044 83.6375 118.435 83.6375 118.9C83.6375 119.227 83.5704 119.526 83.4363 119.798C83.3054 120.066 83.1157 120.295 82.867 120.485C82.6217 120.671 82.3272 120.81 81.9837 120.902L81.7187 121.005H79.4958L79.4859 120.235H81.1642C81.5044 120.235 81.7874 120.176 82.0132 120.058C82.2389 119.937 82.409 119.775 82.5235 119.572C82.638 119.369 82.6953 119.145 82.6953 118.9C82.6953 118.625 82.6413 118.385 82.5333 118.179C82.4254 117.972 82.2553 117.814 82.023 117.703C81.794 117.588 81.4979 117.531 81.1348 117.531H79.7166V123.9H78.7695V116.755ZM82.9455 123.9L81.2084 120.662L82.1947 120.657L83.9564 123.842V123.9H82.9455ZM85.9782 116.755V123.9H85.0311V116.755H85.9782ZM90.2475 120.559H88.4367L88.4269 119.798H90.0708C90.3424 119.798 90.5796 119.752 90.7824 119.661C90.9852 119.569 91.1423 119.438 91.2535 119.268C91.368 119.095 91.4252 118.888 91.4252 118.65C91.4252 118.388 91.3745 118.175 91.2731 118.012C91.175 117.845 91.0228 117.724 90.8167 117.649C90.6139 117.57 90.3555 117.531 90.0414 117.531H88.6477V123.9H87.7006V116.755H90.0414C90.4078 116.755 90.735 116.793 91.0228 116.868C91.3107 116.94 91.5545 117.055 91.754 117.212C91.9569 117.366 92.1106 117.562 92.2153 117.801C92.32 118.04 92.3723 118.326 92.3723 118.659C92.3723 118.954 92.2971 119.221 92.1466 119.459C91.9961 119.695 91.7867 119.888 91.5185 120.038C91.2535 120.189 90.9427 120.285 90.5861 120.328L90.2475 120.559ZM90.2033 123.9H88.0638L88.5987 123.13H90.2033C90.5043 123.13 90.7595 123.078 90.9689 122.973C91.1815 122.868 91.3435 122.721 91.4547 122.531C91.5659 122.338 91.6215 122.111 91.6215 121.849C91.6215 121.584 91.5741 121.355 91.4792 121.162C91.3843 120.969 91.2355 120.82 91.0327 120.716C90.8298 120.611 90.5681 120.559 90.2475 120.559H88.898L88.9078 119.798H90.7529L90.9541 120.073C91.2977 120.102 91.5888 120.2 91.8276 120.367C92.0665 120.531 92.248 120.74 92.3723 120.995C92.4999 121.25 92.5637 121.532 92.5637 121.839C92.5637 122.284 92.4656 122.66 92.2693 122.968C92.0763 123.272 91.8031 123.505 91.4498 123.665C91.0965 123.822 90.681 123.9 90.2033 123.9ZM98.05 116.755H98.9922V121.589C98.9922 122.126 98.8728 122.572 98.634 122.929C98.3952 123.285 98.0778 123.554 97.682 123.734C97.2894 123.91 96.8625 123.999 96.4012 123.999C95.917 123.999 95.4786 123.91 95.086 123.734C94.6967 123.554 94.3876 123.285 94.1586 122.929C93.9328 122.572 93.82 122.126 93.82 121.589V116.755H94.7573V121.589C94.7573 121.962 94.826 122.27 94.9634 122.512C95.1008 122.754 95.2921 122.934 95.5375 123.051C95.7861 123.169 96.074 123.228 96.4012 123.228C96.7316 123.228 97.0195 123.169 97.2649 123.051C97.5135 122.934 97.7065 122.754 97.8439 122.512C97.9813 122.27 98.05 121.962 98.05 121.589V116.755ZM103.119 116.755V123.9H102.187V116.755H103.119ZM105.416 116.755V117.531H99.8951V116.755H105.416ZM111.839 120.102V120.554C111.839 121.09 111.772 121.571 111.638 121.996C111.504 122.422 111.311 122.783 111.059 123.081C110.807 123.379 110.505 123.606 110.151 123.763C109.801 123.92 109.409 123.999 108.974 123.999C108.551 123.999 108.164 123.92 107.81 123.763C107.46 123.606 107.156 123.379 106.898 123.081C106.643 122.783 106.445 122.422 106.304 121.996C106.163 121.571 106.093 121.09 106.093 120.554V120.102C106.093 119.566 106.162 119.086 106.299 118.664C106.44 118.239 106.638 117.878 106.893 117.58C107.148 117.279 107.451 117.05 107.801 116.893C108.154 116.736 108.542 116.657 108.964 116.657C109.399 116.657 109.791 116.736 110.141 116.893C110.495 117.05 110.797 117.279 111.049 117.58C111.304 117.878 111.499 118.239 111.633 118.664C111.771 119.086 111.839 119.566 111.839 120.102ZM110.902 120.554V120.092C110.902 119.667 110.858 119.291 110.77 118.964C110.685 118.637 110.559 118.362 110.392 118.139C110.225 117.917 110.02 117.748 109.778 117.634C109.539 117.519 109.268 117.462 108.964 117.462C108.669 117.462 108.403 117.519 108.164 117.634C107.928 117.748 107.725 117.917 107.555 118.139C107.388 118.362 107.259 118.637 107.168 118.964C107.076 119.291 107.03 119.667 107.03 120.092V120.554C107.03 120.982 107.076 121.362 107.168 121.692C107.259 122.019 107.39 122.296 107.56 122.521C107.734 122.744 107.938 122.912 108.174 123.027C108.412 123.141 108.679 123.199 108.974 123.199C109.281 123.199 109.554 123.141 109.793 123.027C110.032 122.912 110.233 122.744 110.397 122.521C110.563 122.296 110.689 122.019 110.774 121.692C110.86 121.362 110.902 120.982 110.902 120.554ZM117.066 122.095C117.066 121.928 117.039 121.78 116.987 121.653C116.938 121.522 116.85 121.404 116.722 121.3C116.598 121.195 116.424 121.095 116.202 121C115.983 120.905 115.705 120.809 115.368 120.711C115.014 120.606 114.695 120.49 114.411 120.362C114.126 120.231 113.882 120.083 113.68 119.916C113.477 119.749 113.321 119.557 113.213 119.342C113.105 119.126 113.051 118.879 113.051 118.601C113.051 118.322 113.109 118.066 113.223 117.83C113.338 117.595 113.501 117.39 113.714 117.217C113.93 117.04 114.187 116.903 114.484 116.805C114.782 116.706 115.114 116.657 115.481 116.657C116.017 116.657 116.472 116.76 116.845 116.966C117.221 117.169 117.507 117.436 117.703 117.766C117.9 118.093 117.998 118.444 117.998 118.816H117.056C117.056 118.548 116.998 118.311 116.884 118.105C116.769 117.896 116.596 117.732 116.364 117.614C116.132 117.493 115.837 117.433 115.481 117.433C115.144 117.433 114.865 117.483 114.646 117.585C114.427 117.686 114.264 117.824 114.156 117.997C114.051 118.17 113.999 118.368 113.999 118.591C113.999 118.741 114.03 118.879 114.092 119.003C114.157 119.124 114.257 119.237 114.391 119.342C114.529 119.446 114.702 119.543 114.911 119.631C115.124 119.719 115.377 119.804 115.672 119.886C116.078 120.001 116.428 120.128 116.722 120.269C117.016 120.41 117.259 120.568 117.448 120.745C117.641 120.918 117.784 121.116 117.875 121.339C117.97 121.558 118.018 121.807 118.018 122.085C118.018 122.376 117.959 122.639 117.841 122.875C117.723 123.11 117.555 123.312 117.335 123.478C117.116 123.645 116.853 123.774 116.545 123.866C116.241 123.954 115.901 123.999 115.525 123.999C115.194 123.999 114.869 123.953 114.548 123.861C114.231 123.77 113.941 123.632 113.68 123.449C113.421 123.266 113.213 123.04 113.056 122.772C112.903 122.5 112.826 122.186 112.826 121.83H113.768C113.768 122.075 113.815 122.286 113.91 122.463C114.005 122.636 114.134 122.78 114.298 122.894C114.465 123.009 114.653 123.094 114.862 123.15C115.075 123.202 115.296 123.228 115.525 123.228C115.855 123.228 116.135 123.182 116.364 123.091C116.593 122.999 116.766 122.868 116.884 122.698C117.005 122.528 117.066 122.327 117.066 122.095Z" fill="white"/>
<g id="Group 189">
<circle id="Ellipse 31" cx="94.0823" cy="51.5063" r="24.2875" stroke="#FF9900" stroke-width="0.837502"/>
<circle id="Ellipse 32" cx="162.706" cy="159.706" r="24.2875" stroke="#FF9900" stroke-width="0.837502"/>
<circle id="Ellipse 33" cx="162.706" cy="87.5061" r="24.2875" stroke="#FF9900" stroke-width="0.837502"/>
<circle id="Ellipse 34" cx="24.7063" cy="159.706" r="24.2875" stroke="#FF9900" stroke-width="0.837502"/>
<circle id="Ellipse 36" cx="93.7063" cy="196.706" r="24.2875" stroke="#FF9900" stroke-width="0.837502"/>
<circle id="Ellipse 35" cx="25.7063" cy="86.8313" r="24.2875" stroke="#FF9900" stroke-width="0.837502"/>
<path id="Polygon 6" d="M24.453 86.3033L93.6628 49.0505L162.873 86.3033V160.759L93.6628 198.012L24.453 160.759V86.3033Z" stroke="#FF9900" stroke-width="0.837502"/>
</g>
</g>
</svg>
